<svg xmlns="http://www.w3.org/2000/svg" xmlns:xlink="http://www.w3.org/1999/xlink" viewBox="0 0 1728.04 3600.51"><defs><style>.cls-1{fill:#e2c94d;}.cls-2,.cls-7{opacity:0.09;}.cls-2{fill:url(#linear-gradient);}.cls-3,.cls-4,.cls-5{fill:#f6e056;}.cls-4,.cls-6,.cls-8{opacity:0.64;}.cls-5{opacity:0.14;}.cls-6{fill:url(#linear-gradient-2);}.cls-7{fill:url(#linear-gradient-3);}.cls-8{fill:url(#linear-gradient-4);}</style><linearGradient id="linear-gradient" x1="-44.4" y1="2456.24" x2="1271.39" y2="177.22" gradientUnits="userSpaceOnUse"><stop offset="0.5" stop-color="#999a9c"/><stop offset="1" stop-color="#ababac"/></linearGradient><linearGradient id="linear-gradient-2" x1="150.94" y1="2243.18" x2="887.68" y2="967.12" gradientUnits="userSpaceOnUse"><stop offset="0.5" stop-color="#f6e056"/><stop offset="1" stop-color="#e2c94d"/></linearGradient><linearGradient id="linear-gradient-3" x1="-25.63" y1="7509.33" x2="1285.5" y2="5238.39" gradientTransform="translate(1748.52 8730.2) rotate(180) scale(1.01)" xlink:href="#linear-gradient"/><linearGradient id="linear-gradient-4" x1="161.64" y1="7302.38" x2="898.38" y2="6026.32" gradientTransform="translate(1748.52 8730.2) rotate(180) scale(1.01)" xlink:href="#linear-gradient-2"/></defs><title>background-admin</title><g id="Layer_2" data-name="Layer 2"><g id="Layer_1-2" data-name="Layer 1"><rect class="cls-1" width="1728.04" height="3600.51"/><polygon class="cls-2" points="1231.37 1254.15 0 2481.87 0 1371.74 1226.14 151.1 1231.37 1254.15"/><polygon class="cls-3" points="363.98 903.11 521.15 745.94 1097.41 750.16 1099.89 1089.64 925.87 1088.36 924.59 912.44 363.98 903.11"/><polygon class="cls-4" points="1231.37 1254.15 1421.55 1255.54 1413.47 152.47 1226.14 151.1 1231.37 1254.15"/><polygon class="cls-5" points="1514.59 1132.33 1704.77 1133.72 1696.69 30.65 1509.36 29.28 1514.59 1132.33"/><polygon class="cls-6" points="925.87 1088.36 1099.89 1089.64 21.23 2168.3 21.23 1977.77 925.87 1088.36"/><polygon class="cls-7" points="492.57 2346.27 1728.04 1110.13 1728.04 2228.17 497.85 3461.65 492.57 2346.27"/><polygon class="cls-3" points="1369.66 2701.24 1210.73 2860.16 628.03 2855.89 625.51 2512.62 801.48 2513.91 802.78 2691.8 1369.66 2701.24"/><polygon class="cls-4" points="492.57 2346.27 300.26 2344.86 308.43 3460.26 497.85 3461.65 492.57 2346.27"/><polygon class="cls-5" points="206.18 2469.45 13.87 2468.04 22.04 3583.44 211.47 3584.83 206.18 2469.45"/><polygon class="cls-8" points="801.48 2513.91 625.51 2512.62 1716.23 1421.9 1716.23 1614.56 801.48 2513.91"/></g></g></svg>