<svg xmlns="http://www.w3.org/2000/svg" viewBox="0 0 453.64 841.89"><defs><style>.cls-1{fill:none;stroke:#f6e056;stroke-miterlimit:10;}</style></defs><title>deco_1</title><g id="Layer_2" data-name="Layer 2"><g id="Layer_1-2" data-name="Layer 1"><path class="cls-1" d="M8.5,0V149.67a34.62,34.62,0,0,0,10.14,24.47l17.72,17.72A34.62,34.62,0,0,0,60.83,202H244.17a34.62,34.62,0,0,1,24.47,10.14l9.22,9.22A34.62,34.62,0,0,1,288,245.83V460.67a34.62,34.62,0,0,1-10.14,24.47l-9.47,9.47a34.62,34.62,0,0,1-24.47,10.14H222.47A34.61,34.61,0,0,1,198,494.61l-5.92-5.92a34.61,34.61,0,0,1-10.14-24.47V441.33a34.62,34.62,0,0,1,10.14-24.47l3.33-3.32a34.6,34.6,0,0,1,24.46-10.14h158.3a34.62,34.62,0,0,1,24.47,10.14h0A34.6,34.6,0,0,1,412.77,438V709.67a34.62,34.62,0,0,0,10.14,24.47l4.09,4.09a34.61,34.61,0,0,1,10.14,24.47v79.19"/><path class="cls-1" d="M24.5,0V149.67a34.62,34.62,0,0,0,10.14,24.47l17.72,17.72A34.62,34.62,0,0,0,76.83,202H260.17a34.62,34.62,0,0,1,24.47,10.14l9.22,9.22A34.62,34.62,0,0,1,304,245.83V460.67a34.62,34.62,0,0,1-10.14,24.47l-9.47,9.47a34.62,34.62,0,0,1-24.47,10.14H238.47A34.61,34.61,0,0,1,214,494.61l-5.92-5.92a34.61,34.61,0,0,1-10.14-24.47V441.33a34.62,34.62,0,0,1,10.14-24.47l3.33-3.32a34.6,34.6,0,0,1,24.46-10.14h158.3a34.62,34.62,0,0,1,24.47,10.14h0A34.6,34.6,0,0,1,428.77,438V709.67a34.62,34.62,0,0,0,10.14,24.47l4.09,4.09a34.61,34.61,0,0,1,10.14,24.47v79.19"/><path class="cls-1" d="M.5,0V149.67a34.62,34.62,0,0,0,10.14,24.47l17.72,17.72A34.62,34.62,0,0,0,52.83,202H236.17a34.62,34.62,0,0,1,24.47,10.14l9.22,9.22A34.62,34.62,0,0,1,280,245.83V460.67a34.62,34.62,0,0,1-10.14,24.47l-9.47,9.47a34.62,34.62,0,0,1-24.47,10.14H214.47A34.61,34.61,0,0,1,190,494.61l-5.92-5.92a34.61,34.61,0,0,1-10.14-24.47V441.33a34.62,34.62,0,0,1,10.14-24.47l3.33-3.32a34.6,34.6,0,0,1,24.46-10.14h158.3a34.62,34.62,0,0,1,24.47,10.14h0A34.6,34.6,0,0,1,404.77,438V709.67a34.62,34.62,0,0,0,10.14,24.47l4.09,4.09a34.61,34.61,0,0,1,10.14,24.47v79.19"/></g></g></svg>