<svg xmlns="http://www.w3.org/2000/svg" viewBox="0 0 166.26 166.26"><defs><style>.cls-1{fill:#231f20;}.cls-1,.cls-2{stroke:#999a9b;}.cls-1,.cls-2,.cls-3{stroke-miterlimit:10;}.cls-2{fill:#f6e056;}.cls-3{fill:none;stroke:#fff;}</style></defs><title>CDBurger</title><g id="Layer_2" data-name="Layer 2"><g id="Layer_1-2" data-name="Layer 1"><circle class="cls-1" cx="83.13" cy="83.13" r="82.63"/><circle class="cls-2" cx="83.13" cy="83.13" r="19.87"/><path class="cls-3" d="M88,108.39l1.31-.22a15.14,15.14,0,0,0,3.22-.91l.7-.28a15.65,15.65,0,0,0,2.31-1.17l.42-.27a14.77,14.77,0,0,0,2.58-2l1.46-1.41"/><path class="cls-3" d="M88.61,115.91l1.85-.31A21.92,21.92,0,0,0,95,114.32l1-.4a21.2,21.2,0,0,0,3.26-1.65l.6-.38a21.66,21.66,0,0,0,3.64-2.83l2.06-2"/><path class="cls-3" d="M91.42,125.21l2.48-.44A29.39,29.39,0,0,0,100,123l1.32-.56a28.69,28.69,0,0,0,4.36-2.28l.8-.51a29.28,29.28,0,0,0,4.85-3.88l2.73-2.72"/><path class="cls-3" d="M90.15,137.16l3.81-.8a45.27,45.27,0,0,0,9.29-3l2-.92a43.33,43.33,0,0,0,6.61-3.71l1.21-.82a44.4,44.4,0,0,0,7.3-6.18l4.09-4.31"/><path class="cls-3" d="M88,149.23l5.28-1.17a62.06,62.06,0,0,0,12.85-4.38l2.78-1.31a61.25,61.25,0,0,0,9.13-5.26l1.67-1.16a61.78,61.78,0,0,0,10-8.73l5.61-6"/><path class="cls-3" d="M84.52,159.64l7.42-.9a80,80,0,0,0,16.62-6l3.59-1.75a80.4,80.4,0,0,0,11.76-7l2.14-1.54a80.61,80.61,0,0,0,12.86-11.55l6.46-8.87"/><path class="cls-3" d="M76.17,58l-1.31.22a15.11,15.11,0,0,0-3.22.9l-.7.29a15.65,15.65,0,0,0-2.31,1.17l-.42.26a15.27,15.27,0,0,0-2.58,2l-1.46,1.42"/><path class="cls-3" d="M75.56,50.52l-1.85.31a21.66,21.66,0,0,0-4.53,1.28l-1,.4a20.77,20.77,0,0,0-3.26,1.65l-.6.37a22.25,22.25,0,0,0-3.64,2.84l-2.06,2"/><path class="cls-3" d="M72.75,41.21l-2.48.45a29.12,29.12,0,0,0-6.08,1.8L62.86,44A30.19,30.19,0,0,0,58.5,46.3l-.8.51a28.28,28.28,0,0,0-4.85,3.88l-2.73,2.72"/><path class="cls-3" d="M74,29.27l-3.81.79a44.42,44.42,0,0,0-9.28,3l-2,.92a44.14,44.14,0,0,0-6.61,3.7l-1.21.82a44.46,44.46,0,0,0-7.29,6.19L39.7,49"/><path class="cls-3" d="M76.17,17.19l-5.28,1.18A61.47,61.47,0,0,0,58,22.75l-2.78,1.3a62.72,62.72,0,0,0-9.13,5.27l-1.67,1.16a62.21,62.21,0,0,0-10,8.72l-5.61,6.06"/><path class="cls-3" d="M79.65,6.79l-7.42.9a80.58,80.58,0,0,0-16.62,6L52,15.41a80.93,80.93,0,0,0-11.76,7L38.12,24A80.11,80.11,0,0,0,25.27,35.54L18.8,44.41"/></g></g></svg>